<svg xmlns="http://www.w3.org/2000/svg" version="1.0" width="2400" height="1363.228"
     viewBox="130.057 102.312 79.886 45.376" color-interpolation-filters="sRGB">
    <g fill="#000" class="basesvg">
        <path d="M130.84 103.095h5.46l23.86 30.8v-30.8h5.72v41.01h-5.27l-24.05-31.4v31.4h-5.72v-41.01Zm67.79 27.36q1.18 2.4 2.25 4.39 1.07 1.98 2.27 3.41 1.2 1.43 2.63 2.21 1.44.78 3.38.78v5.66q-3.31 0-5.75-1.3t-4.25-3.32q-1.82-2.02-3.16-4.48-1.33-2.47-2.5-4.82-.52-1.17-1.11-2.3-.58-1.14-1.23-2.25-.97.72-1.95 1.21-.97.48-1.95.74-.71.33-1.72.46t-1.66.26v12.87h-5.65v-12.94q-.91-.19-1.6-.55-.68-.36-1.2-.81-1.49-1.11-2.27-2.76-.78-1.66-.78-3.55v-.39q.12-2.14 1.26-3.93 1.14-1.78 3.03-2.76.32-.13.74-.33.43-.19 1.01-.32v-12.54h5.59v12.8q.98.26 2.44.75 1.46.48 2.63 1.26.84.52 1.56 1.08.72.55 1.43 1.2.65-.72 1.27-1.5t1.27-1.62q2.47-3.45 3.73-7.05 1.27-3.61 1.27-6.86h5.66q0 4.16-1.56 8.55-1.56 4.38-4.49 8.61-.91 1.23-1.82 2.37-.91 1.14-1.88 2.11.9 1.37 1.65 2.8.75 1.43 1.46 2.86Zm-17.67-4.23q.78 0 1.78-.19 1.01-.2 2.02-.52 1.01-.33 1.98-.75.98-.42 1.62-.81-1.36-1.23-3.54-2.18-2.18-.94-4.12-.94-1.17 0-1.92.78t-.75 1.95q0 .26.07.68.06.43.35.85t.88.74q.59.33 1.63.39Z"
              class="tp-name"/>
    </g>
</svg>
